FILE "Hover Strike - Unconquered Lands (1995)(Atari)(US)[J9086E].img" BINARY
  TRACK 01 AUDIO
    INDEX 01 00:00:00
  TRACK 02 AUDIO
    INDEX 00 00:04:00
    INDEX 01 00:05:74
  TRACK 03 AUDIO
    INDEX 00 14:44:52
    INDEX 01 14:46:51
  TRACK 04 AUDIO
    INDEX 00 19:25:11
    INDEX 01 19:27:10
  TRACK 05 AUDIO
    INDEX 00 20:06:73
    INDEX 01 20:08:72
